<svg width="106" height="60" viewBox="0 0 106 60" fill="none" xmlns="http://www.w3.org/2000/svg">
<g filter="url(#filter0_d_269_2)">
<path d="M91.5041 32.9659C92.4754 33.3903 93.1083 33.5827 95.0066 33.5284C98.7252 33.4007 97.323 27.3719 100.82 26.9995C99.9406 25.2348 100.607 24.5591 97.6026 24.747C94.103 24.652 93.9333 31.4314 90.3291 31.5708L91.5041 32.9659Z" fill="url(#paint0_linear_269_2)"/>
<path d="M97.6026 24.747C96.6593 22.7653 95.4857 22.5426 92.9251 22.7894C89.427 22.9281 89.6102 28.8803 85.3335 29.6152L90.3291 31.5708C93.9333 31.4314 94.103 24.652 97.6026 24.747Z" fill="url(#paint1_linear_269_2)"/>
<path d="M80.8702 28.0069C81.2123 28.841 81.5717 29.1907 82.4708 29.6331L85.3335 29.6152C89.6102 28.8803 89.427 22.9281 92.9251 22.7894C91.6942 21.0441 90.5752 20.595 87.928 20.6001C83.6899 21.094 85.003 27.6305 80.8702 28.0069Z" fill="url(#paint2_linear_269_2)"/>
<path d="M75.9806 26.0506C76.9515 27.503 77.9529 27.9821 80.8702 28.0069C85.003 27.6305 83.6899 21.094 87.928 20.6001C87.0135 19.3129 85.9869 18.8732 83.1444 18.6432C79.1989 19.1586 80.3233 25.3223 75.9806 26.0506Z" fill="url(#paint3_linear_269_2)"/>
<path d="M80.0587 16.9094L78.4683 16.9193C74.7597 17.2931 75.9624 23.129 71.3045 24.3268C72.09 25.9135 73.3186 26.1112 75.9806 26.0506C80.3233 25.3223 79.1989 19.1586 83.1444 18.6432L80.0587 16.9094Z" fill="url(#paint4_linear_269_2)"/>
<path d="M78.4683 16.9193C76.9838 15.4344 75.9471 14.9583 73.4742 15.1975C69.652 15.5672 70.6458 20.7079 66.4171 22.7211C67.4162 24.0271 68.2357 24.5657 71.3045 24.3268C75.9624 23.129 74.7597 17.2931 78.4683 16.9193Z" fill="url(#paint5_linear_269_2)"/>
<path d="M73.4742 15.1975C71.8943 13.343 70.699 13.3298 68.4807 13.5925C65.4163 15.2615 66.8135 18.2776 61.9575 21.6971C63.3055 22.6695 64.2539 22.935 66.4171 22.7211C70.6458 20.7079 69.652 15.5672 73.4742 15.1975Z" fill="url(#paint6_linear_269_2)"/>
<path d="M60.9048 5.9264C58.9846 6.73144 58.1255 7.44063 57.3225 9.57168C57.1136 10.0794 56.7811 11.2045 56.6966 11.2118C56.1934 15.539 61.8194 16.5557 61.9465 19.9442C63.9783 19.3382 64.7054 18.6798 64.149 16.0737C63.2724 11.5213 59.0219 10.0286 60.9048 5.9264Z" fill="url(#paint7_linear_269_2)"/>
<path d="M68.4807 13.5925L68.2621 12.542L66.3559 12.9045C66.2037 14.6157 65.7097 15.3122 64.149 16.0737C64.7054 18.6798 63.9783 19.3382 61.9465 19.9442L61.9575 21.6971C66.8135 18.2776 65.4163 15.2615 68.4807 13.5925Z" fill="url(#paint8_linear_269_2)"/>
<path d="M67.458 2.61319C64.145 2.02528 62.819 3.02138 60.9048 5.9264C59.0219 10.0286 63.2724 11.5213 64.149 16.0737C65.7097 15.3122 66.2037 14.6157 66.3559 12.9045C67.7181 10.3249 63.769 6.14226 67.458 2.61319Z" fill="url(#paint9_linear_269_2)"/>
<path d="M79.9836 4.87241C78.3943 2.95109 77.3096 2.15942 74.1376 2.57151C68.8466 4.24068 72.1647 9.24533 69.2113 11.718C70.7416 12.4096 71.4972 12.3588 72.7101 11.6962C76.413 10.3875 75.6433 4.58591 79.9836 4.87241Z" fill="url(#paint10_linear_269_2)"/>
<path d="M74.1376 2.57151C71.167 0.796218 69.6723 0.645472 67.458 2.61319C63.769 6.14226 67.7181 10.3249 66.3559 12.9045L68.2621 12.542L69.2113 11.718C72.1647 9.24533 68.8466 4.24068 74.1376 2.57151Z" fill="url(#paint11_linear_269_2)"/>
<path d="M85.2008 8.34592C83.9758 6.18698 83.1807 5.08345 79.9836 4.87241C75.6433 4.58591 76.413 10.3875 72.7101 11.6962C73.1815 12.7583 73.7476 13.249 76.4327 13.5428C80.0376 13.5204 80.5291 7.32324 85.2008 8.34592Z" fill="url(#paint12_linear_269_2)"/>
<path d="M89.4739 13.4615C88.8543 10.7082 87.799 9.67433 85.2008 8.34592C80.5291 7.32324 80.0376 13.5204 76.4327 13.5428C77.2239 15.1378 78.1748 15.5062 80.0529 15.9745C83.3419 16.3046 85.4304 11.1493 89.4739 13.4615Z" fill="url(#paint13_linear_269_2)"/>
<path d="M92.9251 22.7894C92.8189 21.7173 92.6583 21.2264 92.169 20.5737C92.1551 17.7139 92.219 16.1048 89.4739 13.4615C85.4304 11.1493 83.3419 16.3046 80.0529 15.9745L80.0587 16.9094L83.1444 18.6432C85.9869 18.8732 87.0135 19.3129 87.928 20.6001C90.5752 20.595 91.6942 21.0441 92.9251 22.7894Z" fill="url(#paint14_linear_269_2)"/>
<path d="M86.9888 40.0062C89.3473 38.6261 90.328 37.5702 90.3459 34.2587C91.1239 33.8197 91.3677 33.5358 91.5041 32.9659L90.3291 31.5708L85.3335 29.6152L82.4708 29.6331L82.4759 30.4511C83.7701 33.9491 87.8115 35.9106 86.9888 40.0062Z" fill="url(#paint15_linear_269_2)"/>
<path d="M82.034 44.595C84.6306 44.0353 85.6725 42.952 86.9888 40.0062C87.8115 35.9106 83.7701 33.9491 82.4759 30.4511C81.1235 31.0168 80.6913 31.8706 80.2712 33.9709C79.9794 38.18 84.4471 40.4895 82.034 44.595Z" fill="url(#paint16_linear_269_2)"/>
<path d="M76.3254 47.3186C78.8529 47.579 80.1613 47.2418 82.034 44.595C84.4471 40.4895 79.9794 38.18 80.2712 33.9709C79.0984 33.8655 78.4779 34.477 77.4246 36.5598C75.9129 39.5487 80.0152 43.9064 76.3254 47.3186Z" fill="url(#paint17_linear_269_2)"/>
<path d="M69.8629 48.177C72.3433 49.2582 73.7474 49.4202 76.3254 47.3186C80.0152 43.9064 75.9129 39.5487 77.4246 36.5598C76.0718 36.5525 75.2671 36.906 73.7246 38.3359C70.6098 41.2233 75.4619 44.8697 69.8629 48.177Z" fill="url(#paint18_linear_269_2)"/>
<path d="M64.1316 47.2778C66.4988 49.235 67.7209 49.0224 69.8629 48.177C75.4619 44.8697 70.6098 41.2233 73.7246 38.3359C72.8501 37.7639 72.2548 37.5738 69.9106 38.8272C65.7887 41.0311 69.2114 45.7268 64.1316 47.2778Z" fill="url(#paint19_linear_269_2)"/>
<path d="M58.603 44.8581C60.1028 46.8284 61.2399 47.4725 64.1316 47.2778C69.2114 45.7268 65.7887 41.0311 69.9106 38.8272C69.0093 37.5791 68.0942 37.6348 66.3006 38.0316C63.008 38.7601 62.4438 44.7375 58.603 44.8581Z" fill="url(#paint20_linear_269_2)"/>
<path d="M52.4426 43.1435L54.457 43.1309C58.5891 42.6376 58.1235 35.979 62.0479 36.1883C61.1392 34.5222 60.1048 33.9812 57.2614 33.7639C51.7525 34.4995 54.4388 40.2093 49.8884 41.6401L52.4426 43.1435Z" fill="url(#paint21_linear_269_2)"/>
<path d="M54.457 43.1309C55.6716 44.5655 56.5916 44.9212 58.603 44.8581C62.4438 44.7375 63.008 38.7601 66.3006 38.0316C65.2261 36.9326 65.0472 36.0425 62.0479 36.1883C58.1235 35.979 58.5891 42.6376 54.457 43.1309Z" fill="url(#paint22_linear_269_2)"/>
<path d="M57.2614 33.7639C55.3118 31.9903 53.7525 31.7428 52.0559 32.1602C46.7626 33.4627 49.025 39.1912 45.001 40.0344C45.8517 40.9612 46.6781 41.3919 48.6157 41.5658C48.9946 41.5998 49.416 41.624 49.8884 41.6401C54.4388 40.2093 51.7525 34.4995 57.2614 33.7639Z" fill="url(#paint23_linear_269_2)"/>
<path d="M40.0105 38.8969L41.2887 39.8239L43.03 39.9226L45.001 40.0344C49.025 39.1912 46.7626 33.4627 52.0559 32.1602C51.1434 31.1983 50.4677 30.7527 48.2288 30.5479C47.7345 30.6289 46.7289 30.9992 46.7466 30.9078C42.7256 32.2184 44.139 37.8193 40.0105 38.8969Z" fill="url(#paint24_linear_269_2)"/>
<path d="M35.2328 37.8749C36.5299 39.2889 37.4885 39.6686 40.0105 38.8969C44.139 37.8193 42.7256 32.2184 46.7466 30.9078C46.8991 30.1193 43.5904 28.6264 41.6486 29.5372C36.3626 32.0166 39.571 36.6082 35.2328 37.8749Z" fill="url(#paint25_linear_269_2)"/>
<path d="M30.243 36.8542C31.5737 38.128 32.4235 38.6952 35.2328 37.8749C39.571 36.6082 36.3626 32.0166 41.6486 29.5372C40.2227 28.1434 39.071 27.9037 36.3408 28.5185C31.3643 29.639 35.3192 34.7189 30.243 36.8542Z" fill="url(#paint26_linear_269_2)"/>
<path d="M25.3615 36.1835C27.3999 37.6678 28.4576 37.715 30.243 36.8542C35.3192 34.7189 31.3643 29.639 36.3408 28.5185C34.8341 26.7775 33.7123 26.6718 31.3517 27.6147C27.4384 29.1778 29.1704 34.8741 25.3615 36.1835Z" fill="url(#paint27_linear_269_2)"/>
<path d="M24.4094 36.54L25.3615 36.1835C29.1704 34.8741 27.4384 29.1778 31.3517 27.6147C29.8846 26.0765 29.0748 26.0953 27.6335 26.4692C27.2714 26.6234 27.0491 26.7553 26.473 27.4114C26.4218 29.789 26.0885 30.7737 24.9104 31.8621C24.9785 34.278 24.9083 35.3896 24.4094 36.54Z" fill="url(#paint28_linear_269_2)"/>
<path d="M24.4094 36.54C24.9083 35.3896 24.9785 34.278 24.9104 31.8621C24.8275 28.9242 18.3142 28.2803 18.2872 23.9564C18.0863 24.1963 17.9039 24.4276 17.7379 24.661C16.8812 25.8662 16.4638 27.1279 16.2039 29.9297C17.4681 35.1782 20.5743 33.6422 24.4094 36.54Z" fill="url(#paint29_linear_269_2)"/>
<path d="M21.1156 18.4459C19.327 19.5371 18.6805 20.7035 18.2872 23.9564C18.3142 28.2803 24.8275 28.9242 24.9104 31.8621C26.0885 30.7737 26.4218 29.789 26.473 27.4114C26.5487 23.9048 20.4137 22.754 21.1156 18.4459Z" fill="url(#paint30_linear_269_2)"/>
<path d="M25.0572 38.4059C25.2411 37.2171 25.1596 36.745 24.4094 36.54C20.5743 33.6422 17.4681 35.1782 16.2039 29.9297C15.0691 32.0823 14.7395 33.448 14.8944 34.7295C14.9861 35.488 15.2475 36.217 15.6122 37.0624C17.6624 41.8152 21.3478 38.6627 25.0572 38.4059Z" fill="url(#paint31_linear_269_2)"/>
<path d="M14.8944 34.7295C14.7395 33.448 15.0691 32.0823 16.2039 29.9297C16.4638 27.1279 16.8812 25.8662 17.7379 24.661C17.0416 24.7824 16.6623 24.8878 16.1776 25.7226C15.9652 25.3948 15.7526 25.1257 15.5363 24.9074C12.4791 27.7324 13.8833 31.5327 10.2934 34.2907C12.2544 35.5744 13.2506 35.5967 14.8944 34.7295Z" fill="url(#paint32_linear_269_2)"/>
<path d="M5.20049 33.7381C6.64167 34.6753 7.54572 35.0742 10.2934 34.2907C13.8833 31.5327 12.4791 27.7324 15.5363 24.9074C14.3145 23.6739 12.9753 24.0626 10.8792 24.671L10.7637 24.7045C8.31319 25.4152 8.64601 32.5022 5.20049 33.7381Z" fill="url(#paint33_linear_269_2)"/>
<path d="M24.8997 13.1632C22.0741 14.5796 21.5345 15.875 21.1156 18.4459C20.4137 22.754 26.5487 23.9048 26.473 27.4114C27.0491 26.7553 27.2714 26.6234 27.6335 26.4692C28.3066 24.9496 28.4499 24.3435 28.25 23.3099C27.5832 18.4055 23.6508 16.9108 24.8997 13.1632Z" fill="url(#paint34_linear_269_2)"/>
<path d="M30.8153 9.62021C29.1505 9.04002 26.3331 10.9387 24.8997 13.1632C23.6508 16.9108 27.5832 18.4055 28.25 23.3099C29.7943 22.6027 30.336 21.9013 30.8817 20.2549C32.2402 16.156 27.5526 13.7565 30.8153 9.62021Z" fill="url(#paint35_linear_269_2)"/>
<path d="M36.8493 8.06327C34.3471 7.25571 32.9219 7.134 30.8153 9.62021C27.5526 13.7565 32.2402 16.156 30.8817 20.2549C32.4459 20.4942 32.9918 19.7495 33.9447 18.3658C36.7914 15.777 32.0512 11.0975 36.8493 8.06327Z" fill="url(#paint36_linear_269_2)"/>
<path d="M42.5747 8.02755C40.6573 6.78314 39.5071 6.38252 36.8493 8.06327C32.0512 11.0975 36.7914 15.777 33.9447 18.3658C35.506 18.5884 36.3687 18.6034 37.7551 17.2902C41.877 15.1609 37.9256 10.6277 42.5747 8.02755Z" fill="url(#paint37_linear_269_2)"/>
<path d="M53.2935 9.59682C51.6216 7.88531 50.4762 7.64751 48.091 8.4606C43.7233 9.94949 46.3279 14.7825 42.3142 17.2618C44.8378 18.5094 45.7368 18.331 47.0876 17.5826C51.2065 15.3007 48.431 11.9645 53.2935 9.59682Z" fill="url(#paint38_linear_269_2)"/>
<path d="M48.091 8.4606C45.925 7.01937 44.7148 6.66656 42.5747 8.02755C37.9256 10.6277 41.877 15.1609 37.7551 17.2902C39.2045 17.8368 39.7239 18.6368 42.3142 17.2618C46.3279 14.7825 43.7233 9.94949 48.091 8.4606Z" fill="url(#paint39_linear_269_2)"/>
<path d="M57.3225 9.57168C55.7041 9.14621 54.6703 9.01175 53.2935 9.59682C48.431 11.9645 51.2065 15.3007 47.0876 17.5826C48.096 18.6678 48.7651 19.2085 52.1841 18.7195L54.0787 16.4872C54.131 14.7405 55.9035 11.2793 56.6966 11.2118C56.7811 11.2045 57.1136 10.0794 57.3225 9.57168Z" fill="url(#paint40_linear_269_2)"/>
<path d="M60.0716 25.3318C61.2496 24.2713 61.5912 23.4172 61.9575 21.6971L61.9465 19.9442C61.8194 16.5557 56.1934 15.539 56.6966 11.2118C55.9035 11.2793 54.131 14.7405 54.0787 16.4872C53.9213 21.7473 59.9364 20.6579 60.0716 25.3318Z" fill="url(#paint41_linear_269_2)"/>
<path d="M52.1841 18.7195C51.642 20.3102 51.7075 20.9913 51.9932 22.1099C52.8577 25.4937 57.6581 26.6888 57.9817 30.2533C59.824 29.1562 60.0408 27.8852 60.0716 25.3318C59.9364 20.6579 53.9213 21.7473 54.0787 16.4872L52.1841 18.7195Z" fill="url(#paint42_linear_269_2)"/>
<path d="M51.9932 22.1099C50.5288 22.9779 50.1129 24.1978 49.798 27.1489L52.0559 32.1602C53.7525 31.7428 55.3118 31.9903 57.2614 33.7639C57.8429 32.4446 58.1126 31.6951 57.9817 30.2533C57.6581 26.6888 52.8577 25.4937 51.9932 22.1099Z" fill="url(#paint43_linear_269_2)"/>
<path d="M49.798 27.1489C48.4431 28.6471 48.183 29.372 48.2288 30.5479C50.4677 30.7527 51.1434 31.1983 52.0559 32.1602L49.798 27.1489Z" fill="url(#paint44_linear_269_2)"/>
<path d="M48.7528 46.5557C50.9575 45.599 51.632 44.7865 52.4426 43.1435L49.8884 41.6401C49.416 41.624 48.9946 41.5998 48.6157 41.5658C48.6271 43.401 49.1638 44.4495 48.7528 46.5557Z" fill="url(#paint45_linear_269_2)"/>
<path d="M42.8379 50.2155C44.9924 50.5531 48.9106 47.8462 48.7528 46.5557C49.1638 44.4495 48.6271 43.401 48.6157 41.5658C46.6781 41.3919 45.8517 40.9612 45.001 40.0344L43.03 39.9226C42.5887 44.2568 46.3135 46.454 42.8379 50.2155Z" fill="url(#paint46_linear_269_2)"/>
<path d="M36.4793 50.7227C38.3666 51.6977 39.7756 51.5523 42.8379 50.2155C46.3135 46.454 42.5887 44.2568 43.03 39.9226L41.2887 39.8239L40.3417 40.9985C37.9192 43.5847 40.5954 47.6584 36.4793 50.7227Z" fill="url(#paint47_linear_269_2)"/>
<path d="M25.1243 49.1574C27.166 50.7344 28.5259 51.0734 31.0691 50.289C35.0857 48.2771 32.6697 42.9064 36.4188 41.0229C34.4445 39.9697 33.4267 39.9547 31.7522 40.8183C27.235 43.148 29.5672 47.4935 25.1243 49.1574Z" fill="url(#paint48_linear_269_2)"/>
<path d="M31.0691 50.289C32.9339 51.7469 34.1491 51.6833 36.4793 50.7227C40.5954 47.6584 37.9192 43.5847 40.3417 40.9985C39.0095 40.0647 38.1565 40.0394 36.4188 41.0229C32.6697 42.9064 35.0857 48.2771 31.0691 50.289Z" fill="url(#paint49_linear_269_2)"/>
<path d="M15.6122 37.0624C15.0778 41.0483 16.0104 42.6407 18.8418 44.8724C24.2846 47.081 23.6583 41.0148 27.5053 39.9099C26.8704 38.2183 26.2444 38.1986 25.0572 38.4059C21.3478 38.6627 17.6624 41.8152 15.6122 37.0624Z" fill="url(#paint50_linear_269_2)"/>
<path d="M18.8418 44.8724C20.0905 47.7069 22.8993 49.405 25.1243 49.1574C29.5672 47.4935 27.235 43.148 31.7522 40.8183C30.1023 39.415 29.1707 39.4315 27.5053 39.9099C23.6583 41.0148 24.2846 47.081 18.8418 44.8724Z" fill="url(#paint51_linear_269_2)"/>
<path d="M92.9251 22.7894C92.8189 21.7173 92.6583 21.2264 92.169 20.5737C92.1551 17.7139 92.219 16.1048 89.4739 13.4615M92.9251 22.7894C95.4857 22.5426 96.6593 22.7653 97.6026 24.747M92.9251 22.7894C91.6942 21.0441 90.5752 20.595 87.928 20.6001M92.9251 22.7894C89.427 22.9281 89.6102 28.8803 85.3335 29.6152M89.4739 13.4615C88.8544 10.7082 87.799 9.67433 85.2008 8.34592M89.4739 13.4615C85.4304 11.1493 83.3419 16.3046 80.0529 15.9745M85.2008 8.34592C83.9758 6.18698 83.1807 5.08345 79.9836 4.87241M85.2008 8.34592C80.5291 7.32324 80.0376 13.5204 76.4327 13.5428M79.9836 4.87241C78.3943 2.95109 77.3096 2.15942 74.1376 2.57151M79.9836 4.87241C75.6433 4.58591 76.413 10.3875 72.7101 11.6962M74.1376 2.57151C71.167 0.796219 69.6723 0.645473 67.458 2.61319M74.1376 2.57151C68.8466 4.24068 72.1647 9.24533 69.2113 11.718M67.458 2.61319C64.145 2.02528 62.819 3.02138 60.9048 5.9264M67.458 2.61319C63.769 6.14226 67.7181 10.3249 66.3559 12.9045M60.9048 5.9264C58.9846 6.73144 58.1255 7.44063 57.3225 9.57168M60.9048 5.9264C59.0219 10.0286 63.2724 11.5213 64.149 16.0737M57.3225 9.57168C55.7041 9.14621 54.6703 9.01175 53.2935 9.59682M57.3225 9.57168C57.1136 10.0794 56.7811 11.2045 56.6966 11.2118M53.2935 9.59682C51.6216 7.88531 50.4762 7.64751 48.091 8.4606M53.2935 9.59682C48.431 11.9645 51.2065 15.3007 47.0876 17.5826M48.091 8.4606C45.925 7.01937 44.7148 6.66656 42.5747 8.02755M48.091 8.4606C43.7233 9.94949 46.3279 14.7825 42.3142 17.2618M42.5747 8.02755C40.6573 6.78314 39.5071 6.38252 36.8493 8.06327M42.5747 8.02755C37.9256 10.6277 41.877 15.1609 37.7551 17.2902M36.8493 8.06327C34.3471 7.25571 32.9219 7.134 30.8153 9.62021M36.8493 8.06327C32.0512 11.0975 36.7914 15.777 33.9447 18.3658M30.8153 9.62021C29.1505 9.04002 26.3331 10.9387 24.8997 13.1632M30.8153 9.62021C27.5526 13.7565 32.2402 16.156 30.8817 20.2549M24.8997 13.1632C22.0741 14.5796 21.5345 15.875 21.1156 18.4459M24.8997 13.1632C23.6508 16.9108 27.5832 18.4055 28.25 23.3099M21.1156 18.4459C19.327 19.5371 18.6805 20.7035 18.2872 23.9564M21.1156 18.4459C20.4137 22.754 26.5487 23.9048 26.473 27.4114M18.2872 23.9564C18.0863 24.1963 17.9039 24.4276 17.7379 24.661M18.2872 23.9564C18.3142 28.2803 24.8275 28.9242 24.9104 31.8621M16.2039 29.9297C15.0691 32.0823 14.7395 33.448 14.8944 34.7295M16.2039 29.9297C16.4638 27.1279 16.8812 25.8662 17.7379 24.661M16.2039 29.9297C17.4681 35.1782 20.5743 33.6422 24.4094 36.54M15.6122 37.0624C15.0778 41.0483 16.0104 42.6407 18.8418 44.8724M15.6122 37.0624C15.2475 36.217 14.9861 35.488 14.8944 34.7295M15.6122 37.0624C17.6624 41.8152 21.3478 38.6627 25.0572 38.4059M18.8418 44.8724C20.0905 47.7069 22.8993 49.405 25.1243 49.1574M18.8418 44.8724C24.2846 47.081 23.6583 41.0148 27.5053 39.9099M25.1243 49.1574C27.166 50.7344 28.5259 51.0734 31.0691 50.289M25.1243 49.1574C29.5672 47.4935 27.235 43.148 31.7522 40.8183M31.0691 50.289C32.9339 51.7469 34.1492 51.6833 36.4793 50.7227M31.0691 50.289C35.0857 48.2771 32.6697 42.9064 36.4188 41.0229M36.4793 50.7227C38.3666 51.6977 39.7756 51.5523 42.8379 50.2155M36.4793 50.7227C40.5954 47.6584 37.9192 43.5847 40.3417 40.9985M42.8379 50.2155C44.9924 50.5531 48.9106 47.8462 48.7528 46.5557M42.8379 50.2155C46.3135 46.454 42.5887 44.2568 43.03 39.9226M48.7528 46.5557C50.9575 45.599 51.632 44.7865 52.4426 43.1435M48.7528 46.5557C49.1638 44.4495 48.6271 43.401 48.6157 41.5658M52.4426 43.1435L54.457 43.1309M52.4426 43.1435L49.8884 41.6401M54.457 43.1309C55.6716 44.5655 56.5916 44.9212 58.603 44.8581M54.457 43.1309C58.5891 42.6376 58.1235 35.979 62.0479 36.1883M58.603 44.8581C60.1028 46.8284 61.2399 47.4725 64.1316 47.2778M58.603 44.8581C62.4438 44.7375 63.008 38.7601 66.3006 38.0316M64.1316 47.2778C66.4988 49.235 67.7209 49.0224 69.8629 48.177M64.1316 47.2778C69.2114 45.7268 65.7887 41.0311 69.9106 38.8272M69.8629 48.177C72.3433 49.2582 73.7474 49.4202 76.3254 47.3186M69.8629 48.177C75.4619 44.8697 70.6098 41.2233 73.7246 38.3359M76.3254 47.3186C78.8529 47.579 80.1613 47.2418 82.034 44.595M76.3254 47.3186C80.0152 43.9064 75.9129 39.5487 77.4246 36.5598M82.034 44.595C84.6306 44.0353 85.6725 42.952 86.9888 40.0062M82.034 44.595C84.4471 40.4895 79.9794 38.18 80.2712 33.9709M86.9888 40.0062C89.3473 38.6261 90.328 37.5702 90.3459 34.2587C91.1239 33.8197 91.3677 33.5358 91.5041 32.9659M86.9888 40.0062C87.8115 35.9106 83.7701 33.9491 82.4759 30.4511M91.5041 32.9659C92.4754 33.3903 93.1083 33.5827 95.0066 33.5284C98.7252 33.4007 97.323 27.3719 100.82 26.9995C99.9406 25.2348 100.607 24.5591 97.6026 24.747M91.5041 32.9659L90.3291 31.5708M97.6026 24.747C94.103 24.652 93.9333 31.4314 90.3291 31.5708M41.2887 39.8239L40.3417 40.9985M41.2887 39.8239L40.0105 38.8969M41.2887 39.8239L43.03 39.9226M40.3417 40.9985C39.0095 40.0647 38.1565 40.0394 36.4188 41.0229M36.4188 41.0229C34.4445 39.9697 33.4267 39.9547 31.7522 40.8183M31.7522 40.8183C30.1023 39.415 29.1707 39.4315 27.5053 39.9099M27.5053 39.9099C26.8704 38.2183 26.2444 38.1986 25.0572 38.4059M25.0572 38.4059C25.2411 37.2171 25.1596 36.745 24.4094 36.54M24.4094 36.54L25.3615 36.1835M24.4094 36.54C24.9083 35.3896 24.9785 34.278 24.9104 31.8621M25.3615 36.1835C27.3999 37.6678 28.4576 37.715 30.243 36.8542M25.3615 36.1835C29.1704 34.8741 27.4384 29.1778 31.3517 27.6147M30.243 36.8542C31.5737 38.128 32.4235 38.6952 35.2328 37.8749M30.243 36.8542C35.3192 34.7189 31.3643 29.639 36.3408 28.5185M35.2328 37.8749C36.5298 39.2889 37.4885 39.6686 40.0105 38.8969M35.2328 37.8749C39.571 36.6082 36.3626 32.0166 41.6486 29.5372M40.0105 38.8969C44.139 37.8193 42.7256 32.2184 46.7466 30.9078M28.25 23.3099C29.7943 22.6027 30.336 21.9013 30.8817 20.2549M28.25 23.3099C28.4499 24.3435 28.3066 24.9496 27.6335 26.4692M30.8817 20.2549C32.4459 20.4942 32.9918 19.7495 33.9447 18.3658M33.9447 18.3658C35.506 18.5884 36.3687 18.6034 37.7551 17.2902M37.7551 17.2902C39.2045 17.8368 39.7239 18.6368 42.3142 17.2618M42.3142 17.2618C44.8378 18.5094 45.7368 18.331 47.0876 17.5826M47.0876 17.5826C48.096 18.6678 48.7651 19.2085 52.1841 18.7195M52.1841 18.7195C51.642 20.3102 51.7075 20.9913 51.9932 22.1099M52.1841 18.7195L54.0787 16.4872M51.9932 22.1099C50.5288 22.9779 50.1129 24.1978 49.798 27.1489M51.9932 22.1099C52.8577 25.4937 57.6581 26.6888 57.9817 30.2533M49.798 27.1489C48.4431 28.6471 48.183 29.372 48.2288 30.5479M49.798 27.1489L52.0559 32.1602M48.2288 30.5479C47.7345 30.6289 46.7289 30.9992 46.7466 30.9078M48.2288 30.5479C50.4677 30.7527 51.1434 31.1983 52.0559 32.1602M46.7466 30.9078C46.8991 30.1193 43.5904 28.6264 41.6486 29.5372M41.6486 29.5372C40.2227 28.1434 39.071 27.9037 36.3408 28.5185M36.3408 28.5185C34.8341 26.7775 33.7123 26.6718 31.3517 27.6147M31.3517 27.6147C29.8846 26.0765 29.0748 26.0953 27.6335 26.4692M27.6335 26.4692C27.2714 26.6234 27.0491 26.7553 26.473 27.4114M80.0587 16.9094L80.0529 15.9745M80.0587 16.9094L78.4683 16.9193M80.0587 16.9094L83.1444 18.6432M80.0529 15.9745C78.1748 15.5062 77.2239 15.1378 76.4327 13.5428M76.4327 13.5428C73.7476 13.249 73.1814 12.7583 72.7101 11.6962M72.7101 11.6962C71.4972 12.3588 70.7416 12.4096 69.2113 11.718M69.2113 11.718L68.2621 12.542M68.2621 12.542L68.4807 13.5925M68.2621 12.542L66.3559 12.9045M68.4807 13.5925C70.699 13.3298 71.8943 13.343 73.4742 15.1975M68.4807 13.5925C65.4163 15.2615 66.8135 18.2776 61.9575 21.6971M73.4742 15.1975C75.9471 14.9583 76.9838 15.4344 78.4683 16.9193M73.4742 15.1975C69.652 15.5672 70.6458 20.7079 66.4171 22.7211M78.4683 16.9193C74.7597 17.2931 75.9624 23.129 71.3045 24.3268M82.4708 29.6331C81.5717 29.1907 81.2123 28.841 80.8702 28.0069M82.4708 29.6331L82.4759 30.4511M82.4708 29.6331L85.3335 29.6152M80.8702 28.0069C77.9529 27.9821 76.9515 27.503 75.9806 26.0506M80.8702 28.0069C85.003 27.6305 83.6899 21.094 87.928 20.6001M75.9806 26.0506C73.3186 26.1112 72.09 25.9135 71.3045 24.3268M75.9806 26.0506C80.3233 25.3223 79.1989 19.1586 83.1444 18.6432M71.3045 24.3268C68.2357 24.5657 67.4162 24.0271 66.4171 22.7211M66.4171 22.7211C64.2539 22.935 63.3055 22.6695 61.9575 21.6971M61.9575 21.6971C61.5912 23.4172 61.2496 24.2713 60.0716 25.3318M61.9575 21.6971L61.9465 19.9442M60.0716 25.3318C60.0408 27.8852 59.824 29.1562 57.9817 30.2533M60.0716 25.3318C59.9364 20.6579 53.9213 21.7473 54.0787 16.4872M57.9817 30.2533C58.1126 31.6951 57.8429 32.4446 57.2614 33.7639M57.2614 33.7639C60.1048 33.9812 61.1392 34.5222 62.0479 36.1883M57.2614 33.7639C55.3118 31.9903 53.7525 31.7428 52.0559 32.1602M57.2614 33.7639C51.7525 34.4995 54.4388 40.2093 49.8884 41.6401M62.0479 36.1883C65.0472 36.0425 65.2261 36.9326 66.3006 38.0316M66.3006 38.0316C68.0942 37.6348 69.0093 37.5791 69.9106 38.8272M69.9106 38.8272C72.2548 37.5738 72.8501 37.7639 73.7246 38.3359M73.7246 38.3359C75.2671 36.906 76.0719 36.5525 77.4246 36.5598M77.4246 36.5598C78.4779 34.477 79.0984 33.8655 80.2712 33.9709M80.2712 33.9709C80.6913 31.8706 81.1235 31.0168 82.4759 30.4511M87.928 20.6001C87.0135 19.3129 85.9869 18.8732 83.1444 18.6432M61.9465 19.9442C63.9783 19.3382 64.7054 18.6798 64.149 16.0737M61.9465 19.9442C61.8194 16.5557 56.1934 15.539 56.6966 11.2118M64.149 16.0737C65.7097 15.3122 66.2037 14.6157 66.3559 12.9045M90.3291 31.5708L85.3335 29.6152M56.6966 11.2118C55.9035 11.2793 54.131 14.7405 54.0787 16.4872M52.0559 32.1602C46.7626 33.4627 49.025 39.1912 45.001 40.0344M49.8884 41.6401C49.416 41.624 48.9946 41.5998 48.6157 41.5658M45.001 40.0344L43.03 39.9226M45.001 40.0344C45.8517 40.9612 46.6781 41.3919 48.6157 41.5658M24.9104 31.8621C26.0885 30.7737 26.4218 29.789 26.473 27.4114M10.2934 34.2907C7.54572 35.0742 6.64167 34.6753 5.20049 33.7381C8.64601 32.5022 8.31319 25.4152 10.7637 24.7045M10.2934 34.2907C12.2544 35.5744 13.2506 35.5967 14.8944 34.7295M10.2934 34.2907C13.8833 31.5327 12.4791 27.7324 15.5363 24.9074M10.7637 24.7045L10.8792 24.671M10.7637 24.7045C10.8025 24.6933 10.8409 24.6821 10.8792 24.671M17.7379 24.661C17.0416 24.7824 16.6623 24.8878 16.1776 25.7226C15.9652 25.3948 15.7526 25.1257 15.5363 24.9074M15.5363 24.9074C14.3145 23.6739 12.9753 24.0626 10.8792 24.671" stroke="#0B7ED2" stroke-linejoin="round"/>
</g>
<defs>
<filter id="filter0_d_269_2" x="0.700439" y="0.688416" width="104.619" height="59.2297" filterUnits="userSpaceOnUse" color-interpolation-filters="sRGB">
<feFlood flood-opacity="0" result="BackgroundImageFix"/>
<feColorMatrix in="SourceAlpha" type="matrix" values="0 0 0 0 0 0 0 0 0 0 0 0 0 0 0 0 0 0 127 0" result="hardAlpha"/>
<feOffset dy="4"/>
<feGaussianBlur stdDeviation="2"/>
<feComposite in2="hardAlpha" operator="out"/>
<feColorMatrix type="matrix" values="0 0 0 0 0 0 0 0 0 0 0 0 0 0 0 0 0 0 0.25 0"/>
<feBlend mode="normal" in2="BackgroundImageFix" result="effect1_dropShadow_269_2"/>
<feBlend mode="normal" in="SourceGraphic" in2="effect1_dropShadow_269_2" result="shape"/>
</filter>
<linearGradient id="paint0_linear_269_2" x1="50.5768" y1="68.3726" x2="50.1584" y2="1.3151" gradientUnits="userSpaceOnUse">
<stop stop-color="#AEAEAE"/>
<stop offset="1" stop-color="#EFF1F7"/>
</linearGradient>
<linearGradient id="paint1_linear_269_2" x1="50.5768" y1="68.3726" x2="50.1584" y2="1.3151" gradientUnits="userSpaceOnUse">
<stop stop-color="#AEAEAE"/>
<stop offset="1" stop-color="#EFF1F7"/>
</linearGradient>
<linearGradient id="paint2_linear_269_2" x1="50.5768" y1="68.3726" x2="50.1584" y2="1.3151" gradientUnits="userSpaceOnUse">
<stop stop-color="#AEAEAE"/>
<stop offset="1" stop-color="#EFF1F7"/>
</linearGradient>
<linearGradient id="paint3_linear_269_2" x1="50.5768" y1="68.3726" x2="50.1584" y2="1.3151" gradientUnits="userSpaceOnUse">
<stop stop-color="#AEAEAE"/>
<stop offset="1" stop-color="#EFF1F7"/>
</linearGradient>
<linearGradient id="paint4_linear_269_2" x1="50.5768" y1="68.3726" x2="50.1584" y2="1.3151" gradientUnits="userSpaceOnUse">
<stop stop-color="#AEAEAE"/>
<stop offset="1" stop-color="#EFF1F7"/>
</linearGradient>
<linearGradient id="paint5_linear_269_2" x1="50.5768" y1="68.3726" x2="50.1584" y2="1.3151" gradientUnits="userSpaceOnUse">
<stop stop-color="#AEAEAE"/>
<stop offset="1" stop-color="#EFF1F7"/>
</linearGradient>
<linearGradient id="paint6_linear_269_2" x1="50.5768" y1="68.3726" x2="50.1584" y2="1.3151" gradientUnits="userSpaceOnUse">
<stop stop-color="#AEAEAE"/>
<stop offset="1" stop-color="#EFF1F7"/>
</linearGradient>
<linearGradient id="paint7_linear_269_2" x1="50.5768" y1="68.3726" x2="50.1584" y2="1.3151" gradientUnits="userSpaceOnUse">
<stop stop-color="#AEAEAE"/>
<stop offset="1" stop-color="#EFF1F7"/>
</linearGradient>
<linearGradient id="paint8_linear_269_2" x1="50.5768" y1="68.3726" x2="50.1584" y2="1.3151" gradientUnits="userSpaceOnUse">
<stop stop-color="#AEAEAE"/>
<stop offset="1" stop-color="#EFF1F7"/>
</linearGradient>
<linearGradient id="paint9_linear_269_2" x1="50.5768" y1="68.3726" x2="50.1584" y2="1.3151" gradientUnits="userSpaceOnUse">
<stop stop-color="#AEAEAE"/>
<stop offset="1" stop-color="#EFF1F7"/>
</linearGradient>
<linearGradient id="paint10_linear_269_2" x1="50.5768" y1="68.3726" x2="50.1584" y2="1.3151" gradientUnits="userSpaceOnUse">
<stop stop-color="#AEAEAE"/>
<stop offset="1" stop-color="#EFF1F7"/>
</linearGradient>
<linearGradient id="paint11_linear_269_2" x1="50.5768" y1="68.3726" x2="50.1584" y2="1.3151" gradientUnits="userSpaceOnUse">
<stop stop-color="#AEAEAE"/>
<stop offset="1" stop-color="#EFF1F7"/>
</linearGradient>
<linearGradient id="paint12_linear_269_2" x1="50.5768" y1="68.3726" x2="50.1584" y2="1.3151" gradientUnits="userSpaceOnUse">
<stop stop-color="#AEAEAE"/>
<stop offset="1" stop-color="#EFF1F7"/>
</linearGradient>
<linearGradient id="paint13_linear_269_2" x1="50.5768" y1="68.3726" x2="50.1584" y2="1.3151" gradientUnits="userSpaceOnUse">
<stop stop-color="#AEAEAE"/>
<stop offset="1" stop-color="#EFF1F7"/>
</linearGradient>
<linearGradient id="paint14_linear_269_2" x1="50.5768" y1="68.3726" x2="50.1584" y2="1.3151" gradientUnits="userSpaceOnUse">
<stop stop-color="#AEAEAE"/>
<stop offset="1" stop-color="#EFF1F7"/>
</linearGradient>
<linearGradient id="paint15_linear_269_2" x1="50.5768" y1="68.3726" x2="50.1584" y2="1.3151" gradientUnits="userSpaceOnUse">
<stop stop-color="#AEAEAE"/>
<stop offset="1" stop-color="#EFF1F7"/>
</linearGradient>
<linearGradient id="paint16_linear_269_2" x1="50.5768" y1="68.3726" x2="50.1584" y2="1.3151" gradientUnits="userSpaceOnUse">
<stop stop-color="#AEAEAE"/>
<stop offset="1" stop-color="#EFF1F7"/>
</linearGradient>
<linearGradient id="paint17_linear_269_2" x1="50.5768" y1="68.3726" x2="50.1584" y2="1.3151" gradientUnits="userSpaceOnUse">
<stop stop-color="#AEAEAE"/>
<stop offset="1" stop-color="#EFF1F7"/>
</linearGradient>
<linearGradient id="paint18_linear_269_2" x1="50.5768" y1="68.3726" x2="50.1584" y2="1.3151" gradientUnits="userSpaceOnUse">
<stop stop-color="#AEAEAE"/>
<stop offset="1" stop-color="#EFF1F7"/>
</linearGradient>
<linearGradient id="paint19_linear_269_2" x1="50.5768" y1="68.3726" x2="50.1584" y2="1.3151" gradientUnits="userSpaceOnUse">
<stop stop-color="#AEAEAE"/>
<stop offset="1" stop-color="#EFF1F7"/>
</linearGradient>
<linearGradient id="paint20_linear_269_2" x1="50.5768" y1="68.3726" x2="50.1584" y2="1.3151" gradientUnits="userSpaceOnUse">
<stop stop-color="#AEAEAE"/>
<stop offset="1" stop-color="#EFF1F7"/>
</linearGradient>
<linearGradient id="paint21_linear_269_2" x1="50.5768" y1="68.3726" x2="50.1584" y2="1.3151" gradientUnits="userSpaceOnUse">
<stop stop-color="#AEAEAE"/>
<stop offset="1" stop-color="#EFF1F7"/>
</linearGradient>
<linearGradient id="paint22_linear_269_2" x1="50.5768" y1="68.3726" x2="50.1584" y2="1.3151" gradientUnits="userSpaceOnUse">
<stop stop-color="#AEAEAE"/>
<stop offset="1" stop-color="#EFF1F7"/>
</linearGradient>
<linearGradient id="paint23_linear_269_2" x1="50.5768" y1="68.3726" x2="50.1584" y2="1.3151" gradientUnits="userSpaceOnUse">
<stop stop-color="#AEAEAE"/>
<stop offset="1" stop-color="#EFF1F7"/>
</linearGradient>
<linearGradient id="paint24_linear_269_2" x1="50.5768" y1="68.3726" x2="50.1584" y2="1.3151" gradientUnits="userSpaceOnUse">
<stop stop-color="#AEAEAE"/>
<stop offset="1" stop-color="#EFF1F7"/>
</linearGradient>
<linearGradient id="paint25_linear_269_2" x1="50.5768" y1="68.3726" x2="50.1584" y2="1.3151" gradientUnits="userSpaceOnUse">
<stop stop-color="#AEAEAE"/>
<stop offset="1" stop-color="#EFF1F7"/>
</linearGradient>
<linearGradient id="paint26_linear_269_2" x1="50.5768" y1="68.3726" x2="50.1584" y2="1.3151" gradientUnits="userSpaceOnUse">
<stop stop-color="#AEAEAE"/>
<stop offset="1" stop-color="#EFF1F7"/>
</linearGradient>
<linearGradient id="paint27_linear_269_2" x1="50.5768" y1="68.3726" x2="50.1584" y2="1.3151" gradientUnits="userSpaceOnUse">
<stop stop-color="#AEAEAE"/>
<stop offset="1" stop-color="#EFF1F7"/>
</linearGradient>
<linearGradient id="paint28_linear_269_2" x1="50.5768" y1="68.3726" x2="50.1584" y2="1.3151" gradientUnits="userSpaceOnUse">
<stop stop-color="#AEAEAE"/>
<stop offset="1" stop-color="#EFF1F7"/>
</linearGradient>
<linearGradient id="paint29_linear_269_2" x1="50.5768" y1="68.3726" x2="50.1584" y2="1.3151" gradientUnits="userSpaceOnUse">
<stop stop-color="#AEAEAE"/>
<stop offset="1" stop-color="#EFF1F7"/>
</linearGradient>
<linearGradient id="paint30_linear_269_2" x1="50.5768" y1="68.3726" x2="50.1584" y2="1.3151" gradientUnits="userSpaceOnUse">
<stop stop-color="#AEAEAE"/>
<stop offset="1" stop-color="#EFF1F7"/>
</linearGradient>
<linearGradient id="paint31_linear_269_2" x1="50.5768" y1="68.3726" x2="50.1584" y2="1.3151" gradientUnits="userSpaceOnUse">
<stop stop-color="#AEAEAE"/>
<stop offset="1" stop-color="#EFF1F7"/>
</linearGradient>
<linearGradient id="paint32_linear_269_2" x1="50.5768" y1="68.3726" x2="50.1584" y2="1.3151" gradientUnits="userSpaceOnUse">
<stop stop-color="#AEAEAE"/>
<stop offset="1" stop-color="#EFF1F7"/>
</linearGradient>
<linearGradient id="paint33_linear_269_2" x1="50.5768" y1="68.3726" x2="50.1584" y2="1.3151" gradientUnits="userSpaceOnUse">
<stop stop-color="#AEAEAE"/>
<stop offset="1" stop-color="#EFF1F7"/>
</linearGradient>
<linearGradient id="paint34_linear_269_2" x1="50.5768" y1="68.3726" x2="50.1584" y2="1.3151" gradientUnits="userSpaceOnUse">
<stop stop-color="#AEAEAE"/>
<stop offset="1" stop-color="#EFF1F7"/>
</linearGradient>
<linearGradient id="paint35_linear_269_2" x1="50.5768" y1="68.3726" x2="50.1584" y2="1.3151" gradientUnits="userSpaceOnUse">
<stop stop-color="#AEAEAE"/>
<stop offset="1" stop-color="#EFF1F7"/>
</linearGradient>
<linearGradient id="paint36_linear_269_2" x1="50.5768" y1="68.3726" x2="50.1584" y2="1.3151" gradientUnits="userSpaceOnUse">
<stop stop-color="#AEAEAE"/>
<stop offset="1" stop-color="#EFF1F7"/>
</linearGradient>
<linearGradient id="paint37_linear_269_2" x1="50.5768" y1="68.3726" x2="50.1584" y2="1.3151" gradientUnits="userSpaceOnUse">
<stop stop-color="#AEAEAE"/>
<stop offset="1" stop-color="#EFF1F7"/>
</linearGradient>
<linearGradient id="paint38_linear_269_2" x1="50.5768" y1="68.3726" x2="50.1584" y2="1.3151" gradientUnits="userSpaceOnUse">
<stop stop-color="#AEAEAE"/>
<stop offset="1" stop-color="#EFF1F7"/>
</linearGradient>
<linearGradient id="paint39_linear_269_2" x1="50.5768" y1="68.3726" x2="50.1584" y2="1.3151" gradientUnits="userSpaceOnUse">
<stop stop-color="#AEAEAE"/>
<stop offset="1" stop-color="#EFF1F7"/>
</linearGradient>
<linearGradient id="paint40_linear_269_2" x1="50.5768" y1="68.3726" x2="50.1584" y2="1.3151" gradientUnits="userSpaceOnUse">
<stop stop-color="#AEAEAE"/>
<stop offset="1" stop-color="#EFF1F7"/>
</linearGradient>
<linearGradient id="paint41_linear_269_2" x1="50.5768" y1="68.3726" x2="50.1584" y2="1.3151" gradientUnits="userSpaceOnUse">
<stop stop-color="#AEAEAE"/>
<stop offset="1" stop-color="#EFF1F7"/>
</linearGradient>
<linearGradient id="paint42_linear_269_2" x1="50.5768" y1="68.3726" x2="50.1584" y2="1.3151" gradientUnits="userSpaceOnUse">
<stop stop-color="#AEAEAE"/>
<stop offset="1" stop-color="#EFF1F7"/>
</linearGradient>
<linearGradient id="paint43_linear_269_2" x1="50.5768" y1="68.3726" x2="50.1584" y2="1.3151" gradientUnits="userSpaceOnUse">
<stop stop-color="#AEAEAE"/>
<stop offset="1" stop-color="#EFF1F7"/>
</linearGradient>
<linearGradient id="paint44_linear_269_2" x1="50.5768" y1="68.3726" x2="50.1584" y2="1.3151" gradientUnits="userSpaceOnUse">
<stop stop-color="#AEAEAE"/>
<stop offset="1" stop-color="#EFF1F7"/>
</linearGradient>
<linearGradient id="paint45_linear_269_2" x1="50.5768" y1="68.3726" x2="50.1584" y2="1.3151" gradientUnits="userSpaceOnUse">
<stop stop-color="#AEAEAE"/>
<stop offset="1" stop-color="#EFF1F7"/>
</linearGradient>
<linearGradient id="paint46_linear_269_2" x1="50.5768" y1="68.3726" x2="50.1584" y2="1.3151" gradientUnits="userSpaceOnUse">
<stop stop-color="#AEAEAE"/>
<stop offset="1" stop-color="#EFF1F7"/>
</linearGradient>
<linearGradient id="paint47_linear_269_2" x1="50.5768" y1="68.3726" x2="50.1584" y2="1.3151" gradientUnits="userSpaceOnUse">
<stop stop-color="#AEAEAE"/>
<stop offset="1" stop-color="#EFF1F7"/>
</linearGradient>
<linearGradient id="paint48_linear_269_2" x1="50.5768" y1="68.3726" x2="50.1584" y2="1.3151" gradientUnits="userSpaceOnUse">
<stop stop-color="#AEAEAE"/>
<stop offset="1" stop-color="#EFF1F7"/>
</linearGradient>
<linearGradient id="paint49_linear_269_2" x1="50.5768" y1="68.3726" x2="50.1584" y2="1.3151" gradientUnits="userSpaceOnUse">
<stop stop-color="#AEAEAE"/>
<stop offset="1" stop-color="#EFF1F7"/>
</linearGradient>
<linearGradient id="paint50_linear_269_2" x1="50.5768" y1="68.3726" x2="50.1584" y2="1.3151" gradientUnits="userSpaceOnUse">
<stop stop-color="#AEAEAE"/>
<stop offset="1" stop-color="#EFF1F7"/>
</linearGradient>
<linearGradient id="paint51_linear_269_2" x1="50.5768" y1="68.3726" x2="50.1584" y2="1.3151" gradientUnits="userSpaceOnUse">
<stop stop-color="#AEAEAE"/>
<stop offset="1" stop-color="#EFF1F7"/>
</linearGradient>
</defs>
</svg>
